<svg width="35" height="35" viewBox="0 0 35 35" fill="none" xmlns="http://www.w3.org/2000/svg">
<path fill-rule="evenodd" clip-rule="evenodd" d="M17.5 35C27.165 35 35 27.165 35 17.5C35 7.83502 27.165 0 17.5 0C7.83502 0 0 7.83502 0 17.5C0 27.165 7.83502 35 17.5 35ZM6.76674 17.5C6.76674 11.5817 11.5818 6.76667 17.5001 6.76667C23.4183 6.76667 28.2334 11.5817 28.2334 17.5C28.2334 23.4183 23.4183 28.2333 17.5001 28.2333C15.7314 28.2333 13.9828 27.7937 12.4302 26.9603L7.3454 28.2198C7.30854 28.2287 7.27074 28.2333 7.2334 28.2333C7.1088 28.2333 6.98747 28.1834 6.89834 28.0915C6.7826 27.9725 6.7392 27.8007 6.784 27.6407L8.14947 22.7687C7.24414 21.1652 6.76674 19.348 6.76674 17.5ZM21.0393 22.5811C21.5685 22.5031 22.6698 21.9231 22.8994 21.2875C23.129 20.6523 23.129 20.1073 23.0599 19.9943C23.0044 19.9032 22.8748 19.8413 22.6831 19.7498C22.6363 19.7274 22.5857 19.7033 22.5317 19.6765C22.2563 19.5403 20.9016 18.8823 20.6487 18.7917C20.3957 18.7007 20.2119 18.6559 20.0285 18.928C19.8451 19.2001 19.3168 19.8128 19.1563 19.9948C18.9957 20.1763 18.8347 20.1992 18.5594 20.0629C18.5143 20.0406 18.4528 20.0142 18.3768 19.9817C17.9888 19.8154 17.2236 19.4874 16.3437 18.7124C15.5242 17.9909 14.9712 17.1001 14.8107 16.8275C14.6501 16.555 14.7934 16.408 14.9315 16.2722C15.0139 16.1911 15.1081 16.0778 15.2025 15.9643C15.2504 15.9066 15.2985 15.8489 15.345 15.7953C15.4628 15.6596 15.5134 15.5572 15.5824 15.4174C15.5944 15.3933 15.6069 15.368 15.6203 15.3412C15.7118 15.1597 15.6661 15.0005 15.597 14.8643C15.5518 14.7736 15.2941 14.1538 15.0586 13.5878C14.9392 13.3005 14.8254 13.0271 14.7481 12.8436C14.5509 12.375 14.3507 12.3762 14.19 12.3772C14.1686 12.3773 14.1478 12.3775 14.1279 12.3765C13.9669 12.369 13.7835 12.3667 13.5997 12.3667C13.4158 12.3667 13.1176 12.4348 12.8647 12.7073C12.8486 12.7247 12.8306 12.7436 12.8111 12.7641C12.5241 13.0664 11.9001 13.7235 11.9001 14.9772C11.9001 16.308 12.8756 17.594 13.0226 17.7878L13.0252 17.7912C13.0344 17.8033 13.051 17.8267 13.0747 17.8603C13.4078 18.3315 15.1523 20.7994 17.7325 21.8997C18.39 22.1802 18.9033 22.3473 19.3033 22.4733C19.9631 22.6805 20.5642 22.6506 21.0393 22.5811Z" fill="white"/>
</svg>
