<svg width="35" height="35" viewBox="0 0 35 35" fill="none" xmlns="http://www.w3.org/2000/svg">
<path fill-rule="evenodd" clip-rule="evenodd" d="M17.5 35C27.165 35 35 27.165 35 17.5C35 7.83502 27.165 0 17.5 0C7.83502 0 0 7.83502 0 17.5C0 27.165 7.83502 35 17.5 35ZM8.16667 13.6126C8.16667 10.6104 10.6081 8.16667 13.6096 8.16667H21.3874C24.3896 8.16667 26.8333 10.6081 26.8333 13.6096V21.3874C26.8333 24.3896 24.3919 26.8333 21.3904 26.8333H13.6126C10.6104 26.8333 8.16667 24.3919 8.16667 21.3904V13.6126ZM23.7222 12.0556C23.7222 11.6262 23.3738 11.2778 22.9444 11.2778C22.5151 11.2778 22.1667 11.6262 22.1667 12.0556C22.1667 12.4849 22.5151 12.8333 22.9444 12.8333C23.3738 12.8333 23.7222 12.4849 23.7222 12.0556ZM22.1667 17.5C22.1667 14.9263 20.0737 12.8333 17.5 12.8333C14.9263 12.8333 12.8333 14.9263 12.8333 17.5C12.8333 20.0737 14.9263 22.1667 17.5 22.1667C20.0737 22.1667 22.1667 20.0737 22.1667 17.5ZM15.3001 15.3001C15.8836 14.7167 16.6749 14.3889 17.5 14.3889C18.3251 14.3889 19.1164 14.7167 19.6999 15.3001C20.2833 15.8836 20.6111 16.6749 20.6111 17.5C20.6111 18.3251 20.2833 19.1164 19.6999 19.6999C19.1164 20.2833 18.3251 20.6111 17.5 20.6111C16.6749 20.6111 15.8836 20.2833 15.3001 19.6999C14.7167 19.1164 14.3889 18.3251 14.3889 17.5C14.3889 16.6749 14.7167 15.8836 15.3001 15.3001Z" fill="white"/>
</svg>
