<svg width="35" height="35" viewBox="0 0 35 35" fill="none" xmlns="http://www.w3.org/2000/svg">
<path fill-rule="evenodd" clip-rule="evenodd" d="M17.5 35C27.165 35 35 27.165 35 17.5C35 7.83502 27.165 0 17.5 0C7.83502 0 0 7.83502 0 17.5C0 27.165 7.83502 35 17.5 35ZM24.9193 10.593C25.9474 10.8263 26.8333 11.5737 27.0193 12.6C27.2526 13.7667 27.4859 15.4 27.5807 17.5C27.5333 19.5526 27.3 21.2333 27.1141 22.4C26.9263 23.4737 26.0404 24.1737 25.0141 24.407C23.3807 24.7333 20.5807 24.9667 17.5 24.9667C14.4193 24.9667 11.6193 24.7333 9.98594 24.407C8.95964 24.1737 8.0737 23.4263 7.88594 22.4C7.6526 21.2333 7.46667 19.6 7.46667 17.5C7.46667 15.4 7.6526 13.7667 7.84036 12.6C8.0263 11.5263 8.91406 10.8263 9.94036 10.593C11.4807 10.2667 14.3737 10.0333 17.4526 10.0333C20.5333 10.0333 23.3807 10.2667 24.9193 10.593ZM20.6263 17.5L14.9333 14.2333V20.7667L20.6263 17.5Z" fill="white"/>
</svg>
